<?xml version="1.0" encoding="UTF-8"?>
<!DOCTYPE svg PUBLIC "-//W3C//DTD SVG 1.1//EN" "http://www.w3.org/Graphics/SVG/1.1/DTD/svg11.dtd">
<svg xmlns="http://www.w3.org/2000/svg" version="1.1" width="500px" height="500px" style="shape-rendering:geometricPrecision; text-rendering:geometricPrecision; image-rendering:optimizeQuality; fill-rule:evenodd; clip-rule:evenodd" xmlns:xlink="http://www.w3.org/1999/xlink">
<g><path style="opacity:1" fill="#090e34" d="M -0.5,-0.5 C 166.167,-0.5 332.833,-0.5 499.5,-0.5C 499.5,166.167 499.5,332.833 499.5,499.5C 332.833,499.5 166.167,499.5 -0.5,499.5C -0.5,332.833 -0.5,166.167 -0.5,-0.5 Z"/></g>
<g><path style="opacity:1" fill="#efeff0" d="M 140.5,253.5 C 140.783,254.289 141.283,254.956 142,255.5C 142.5,247.507 142.666,239.507 142.5,231.5C 145.5,231.5 148.5,231.5 151.5,231.5C 151.5,244.833 151.5,258.167 151.5,271.5C 148.482,271.665 145.482,271.498 142.5,271C 136.667,263.167 130.833,255.333 125,247.5C 124.5,255.493 124.334,263.493 124.5,271.5C 121.167,271.5 117.833,271.5 114.5,271.5C 114.5,258.167 114.5,244.833 114.5,231.5C 117.85,231.335 121.183,231.502 124.5,232C 129.665,239.326 134.998,246.493 140.5,253.5 Z"/></g>
<g><path style="opacity:1" fill="#4a4e69" d="M 142.5,231.5 C 142.666,239.507 142.5,247.507 142,255.5C 141.283,254.956 140.783,254.289 140.5,253.5C 141.167,246.167 141.833,238.833 142.5,231.5 Z"/></g>
<g><path style="opacity:1" fill="#e5e5e8" d="M 160.5,231.5 C 162.833,231.5 165.167,231.5 167.5,231.5C 167.5,244.833 167.5,258.167 167.5,271.5C 165.167,271.5 162.833,271.5 160.5,271.5C 160.5,258.167 160.5,244.833 160.5,231.5 Z"/></g>
<g><path style="opacity:1" fill="#ededee" d="M 178.5,231.5 C 186.174,231.334 193.841,231.5 201.5,232C 210.636,236.574 213.136,243.74 209,253.5C 207.316,255.351 205.483,257.018 203.5,258.5C 205.969,262.801 208.636,266.967 211.5,271C 208.833,271.667 206.167,271.667 203.5,271C 201.167,267.333 198.833,263.667 196.5,260C 192.848,259.501 189.182,259.335 185.5,259.5C 185.5,263.5 185.5,267.5 185.5,271.5C 183.167,271.5 180.833,271.5 178.5,271.5C 178.5,258.167 178.5,244.833 178.5,231.5 Z"/></g>
<g><path style="opacity:1" fill="#ececee" d="M 214.5,232.5 C 218.233,231.179 222.066,231.179 226,232.5C 228.894,241.284 232.061,249.95 235.5,258.5C 239.02,249.945 242.353,241.279 245.5,232.5C 249.122,231.341 252.789,231.175 256.5,232C 251.204,244.762 246.037,257.595 241,270.5C 237.27,271.46 233.437,271.793 229.5,271.5C 225.071,258.201 220.071,245.201 214.5,232.5 Z"/></g>
<g><path style="opacity:1" fill="#ebebed" d="M 273.5,231.5 C 276.448,231.223 279.281,231.556 282,232.5C 287.225,245.283 292.725,257.95 298.5,270.5C 296.235,271.647 293.902,271.814 291.5,271C 290.167,268.333 288.833,265.667 287.5,263C 280.833,262.333 274.167,262.333 267.5,263C 266.167,265.667 264.833,268.333 263.5,271C 261.167,271.667 258.833,271.667 256.5,271C 262.308,257.885 267.975,244.719 273.5,231.5 Z"/></g>
<g><path style="opacity:1" fill="#ebebec" d="M 303.5,231.5 C 306.187,231.336 308.854,231.503 311.5,232C 317.948,241.449 324.782,250.616 332,259.5C 332.5,250.173 332.666,240.839 332.5,231.5C 334.5,231.5 336.5,231.5 338.5,231.5C 338.5,244.833 338.5,258.167 338.5,271.5C 335.881,271.768 333.381,271.435 331,270.5C 324.719,261.218 318.052,252.218 311,243.5C 310.5,252.827 310.334,262.161 310.5,271.5C 308.167,271.5 305.833,271.5 303.5,271.5C 303.5,258.167 303.5,244.833 303.5,231.5 Z"/></g>
<g><path style="opacity:1" fill="#ecedee" d="M 360.5,231.5 C 364.182,231.335 367.848,231.501 371.5,232C 377.454,244.692 383.121,257.525 388.5,270.5C 384.878,271.659 381.211,271.825 377.5,271C 376.331,268.993 375.665,266.827 375.5,264.5C 369.167,264.5 362.833,264.5 356.5,264.5C 356.414,266.677 355.747,268.677 354.5,270.5C 350.878,271.659 347.211,271.825 343.5,271C 349.308,257.885 354.975,244.719 360.5,231.5 Z"/></g>
<g><path style="opacity:1" fill="#0d1337" d="M 185.5,237.5 C 190.179,237.334 194.845,237.501 199.5,238C 204.741,240.877 205.907,245.044 203,250.5C 197.514,253.171 191.68,254.171 185.5,253.5C 185.5,248.167 185.5,242.833 185.5,237.5 Z"/></g>
<g><path style="opacity:1" fill="#12173b" d="M 276.5,239.5 C 280.288,244.475 282.954,250.141 284.5,256.5C 279.786,256.827 275.12,256.493 270.5,255.5C 273.076,250.354 275.076,245.021 276.5,239.5 Z"/></g>
<g><path style="opacity:1" fill="#161a3e" d="M 365.5,242.5 C 367.865,246.562 369.865,250.895 371.5,255.5C 367.833,256.833 364.167,256.833 360.5,255.5C 362.371,251.216 364.038,246.883 365.5,242.5 Z"/></g>
</svg>
