<?xml version="1.0" encoding="UTF-8"?>
<!DOCTYPE svg PUBLIC "-//W3C//DTD SVG 1.1//EN" "http://www.w3.org/Graphics/SVG/1.1/DTD/svg11.dtd">
<svg xmlns="http://www.w3.org/2000/svg" version="1.1" width="500px" height="500px" style="shape-rendering:geometricPrecision; text-rendering:geometricPrecision; image-rendering:optimizeQuality; fill-rule:evenodd; clip-rule:evenodd" xmlns:xlink="http://www.w3.org/1999/xlink">
<g><path style="opacity:1" fill="#fefefe" d="M -0.5,-0.5 C 166.167,-0.5 332.833,-0.5 499.5,-0.5C 499.5,166.167 499.5,332.833 499.5,499.5C 332.833,499.5 166.167,499.5 -0.5,499.5C -0.5,332.833 -0.5,166.167 -0.5,-0.5 Z"/></g>
<g><path style="opacity:1" fill="#080808" d="M 114.5,231.5 C 117.898,231.18 121.232,231.513 124.5,232.5C 130.333,240.167 136.167,247.833 142,255.5C 142.5,247.507 142.666,239.507 142.5,231.5C 145.5,231.5 148.5,231.5 151.5,231.5C 151.5,244.833 151.5,258.167 151.5,271.5C 148.482,271.665 145.482,271.498 142.5,271C 136.667,263.167 130.833,255.333 125,247.5C 124.5,255.493 124.334,263.493 124.5,271.5C 121.167,271.5 117.833,271.5 114.5,271.5C 114.5,258.167 114.5,244.833 114.5,231.5 Z"/></g>
<g><path style="opacity:1" fill="#000000" d="M 161.5,231.5 C 163.5,231.5 165.5,231.5 167.5,231.5C 167.5,244.833 167.5,258.167 167.5,271.5C 165.5,271.5 163.5,271.5 161.5,271.5C 161.5,258.167 161.5,244.833 161.5,231.5 Z"/></g>
<g><path style="opacity:1" fill="#090909" d="M 178.5,231.5 C 185.841,231.334 193.174,231.5 200.5,232C 209.58,234.991 212.747,241.157 210,250.5C 208.523,253.963 206.356,256.796 203.5,259C 205.913,263.155 208.579,267.155 211.5,271C 208.773,271.818 206.106,271.652 203.5,270.5C 201.5,267.167 199.5,263.833 197.5,260.5C 193.555,259.509 189.555,259.176 185.5,259.5C 185.5,263.5 185.5,267.5 185.5,271.5C 183.167,271.5 180.833,271.5 178.5,271.5C 178.5,258.167 178.5,244.833 178.5,231.5 Z"/></g>
<g><path style="opacity:1" fill="#070707" d="M 214.5,232.5 C 218.233,231.179 222.066,231.179 226,232.5C 228.873,241.619 232.039,250.619 235.5,259.5C 238.83,250.51 242.164,241.51 245.5,232.5C 248.768,231.513 252.102,231.18 255.5,231.5C 251.099,244.699 246.099,257.699 240.5,270.5C 236.893,271.489 233.226,271.823 229.5,271.5C 225.297,258.111 220.297,245.111 214.5,232.5 Z"/></g>
<g><path style="opacity:1" fill="#090909" d="M 273.5,231.5 C 278.944,230.375 282.444,232.375 284,237.5C 288.736,248.541 293.569,259.541 298.5,270.5C 296.167,271.833 293.833,271.833 291.5,270.5C 289.924,268.021 288.924,265.354 288.5,262.5C 281.492,262.334 274.492,262.5 267.5,263C 265.895,265.543 264.562,268.209 263.5,271C 261.167,271.667 258.833,271.667 256.5,271C 262.865,258.107 268.531,244.94 273.5,231.5 Z"/></g>
<g><path style="opacity:1" fill="#040404" d="M 304.5,231.5 C 306.924,231.192 309.257,231.526 311.5,232.5C 318.141,241.642 324.975,250.642 332,259.5C 332.5,250.173 332.666,240.839 332.5,231.5C 334.5,231.5 336.5,231.5 338.5,231.5C 338.5,244.833 338.5,258.167 338.5,271.5C 336.076,271.808 333.743,271.474 331.5,270.5C 324.859,261.358 318.025,252.358 311,243.5C 310.5,252.827 310.334,262.161 310.5,271.5C 308.5,271.5 306.5,271.5 304.5,271.5C 304.5,258.167 304.5,244.833 304.5,231.5 Z"/></g>
<g><path style="opacity:1" fill="#090909" d="M 360.5,231.5 C 364.182,231.335 367.848,231.501 371.5,232C 377.167,245 382.833,258 388.5,271C 384.789,271.825 381.122,271.659 377.5,270.5C 376.253,268.677 375.586,266.677 375.5,264.5C 369.132,264.17 362.798,264.504 356.5,265.5C 355.833,267.167 355.167,268.833 354.5,270.5C 350.878,271.659 347.211,271.825 343.5,271C 349.655,258.032 355.322,244.865 360.5,231.5 Z"/></g>
<g><path style="opacity:1" fill="#f8f8f8" d="M 185.5,237.5 C 190.179,237.334 194.845,237.501 199.5,238C 204.689,240.913 205.856,245.08 203,250.5C 202.097,251.701 200.931,252.535 199.5,253C 194.845,253.499 190.179,253.666 185.5,253.5C 185.5,248.167 185.5,242.833 185.5,237.5 Z"/></g>
<g><path style="opacity:1" fill="#f2f2f2" d="M 276.5,239.5 C 280.436,244.381 283.103,250.048 284.5,256.5C 279.833,256.5 275.167,256.5 270.5,256.5C 272.214,250.737 274.214,245.07 276.5,239.5 Z"/></g>
<g><path style="opacity:1" fill="#ededed" d="M 365.5,242.5 C 368.244,246.357 370.244,250.69 371.5,255.5C 367.893,256.489 364.226,256.823 360.5,256.5C 361.77,251.688 363.437,247.022 365.5,242.5 Z"/></g>
</svg>
